<?xml version="1.0" ?><!DOCTYPE svg  PUBLIC '-//W3C//DTD SVG 1.1//EN'  'http://www.w3.org/Graphics/SVG/1.1/DTD/svg11.dtd'><svg height="32px" id="Layer_2" style="enable-background:new 0 0 32 32;" version="1.1" viewBox="0 0 32 32" width="32px" xml:space="preserve" xmlns="http://www.w3.org/2000/svg" xmlns:xlink="http://www.w3.org/1999/xlink"><style type="text/css">
<![CDATA[
	.st0{fill:none;stroke:#545454;stroke-width:0.5;stroke-miterlimit:10;}
	.st1{fill:none;stroke:#545454;stroke-miterlimit:10;}
	.st2{fill:#545454;}
	.st3{fill:none;stroke:#545454;stroke-linecap:round;stroke-miterlimit:10;}
	.st4{fill-rule:evenodd;clip-rule:evenodd;fill:none;stroke:#545454;stroke-width:0.5;stroke-miterlimit:10;}
]]>
</style><g><g><path class="st2" d="M23.215,3.885c0,0,0.965,1.931,0.103,3.835c1.263,1.426,1.697,3.214,1.697,4.847    c0,3.012-1.595,5.523-6.934,6.093c0.715,0.499,1.184,1.328,1.184,2.267v4.04c0,1.527-1.238,2.766-2.765,2.766h-1.79    c-1.527,0-2.765-1.238-2.765-2.766v-2.312c-0.294,0.093-0.71,0.148-1.185,0.148c-0.759,0-1.666-0.144-2.463-0.508    c-1.359-0.622-1.199-1.589-2.065-2.766c-0.375-0.509-1.691-1.059-1.346-1.312c0.177-0.13,0.383-0.181,0.599-0.181    c0.827,0,1.798,0.757,1.798,0.757c0.853,0.714,0.576,1.612,2.512,2.188c0.216,0.064,0.431,0.09,0.636,0.09    c0.837,0,1.519-0.43,1.519-0.43s0.012-0.017,0.013-0.017l0,0c0.075-0.839,0.518-1.513,1.171-1.969    c-5.312-0.576-6.9-3.083-6.9-6.089c0-1.905,0.392-3.629,1.512-4.945C6.958,5.748,7.889,3.885,7.889,3.885    c1.818,0.032,3.688,1.308,3.967,1.504c1.062-0.235,2.309-0.363,3.769-0.363c1.378,0,2.565,0.141,3.589,0.389    C19.213,5.414,21.245,3.92,23.215,3.885 M23.827,2.874l-0.63,0.011c-1.73,0.031-3.438,0.983-4.186,1.46    c-1.029-0.212-2.167-0.319-3.388-0.319c-1.308,0-2.504,0.101-3.562,0.301c-0.771-0.487-2.453-1.411-4.156-1.441L7.275,2.874    L6.994,3.438c-0.043,0.085-0.95,1.943-0.371,3.999c-0.935,1.321-1.391,3.007-1.391,5.13c0,2.277,0.794,4.023,2.369,5.227    c-0.458-0.305-1.28-0.758-2.116-0.758c-0.444,0-0.856,0.129-1.19,0.374c-0.302,0.223-0.472,0.559-0.466,0.923    c0.012,0.665,0.548,1.032,1.065,1.388c0.173,0.117,0.461,0.315,0.536,0.406c0.244,0.331,0.389,0.651,0.542,0.99    c0.326,0.718,0.695,1.531,1.909,2.087c1.137,0.521,2.292,0.599,2.879,0.599c0.062,0,0.124-0.001,0.185-0.003v1.167    c0,2.076,1.688,3.766,3.765,3.766h1.79c2.076,0,3.765-1.689,3.765-3.766v-4.04c0-0.543-0.118-1.071-0.336-1.553    c3.079-0.684,6.086-2.464,6.086-6.807c0-1.38-0.282-3.321-1.561-5.033c0.635-2.093-0.301-4.008-0.345-4.096L23.827,2.874    L23.827,2.874z M10.431,20.07c-0.124,0-0.242-0.016-0.351-0.048c-0.906-0.271-1.066-0.535-1.331-0.975    c-0.181-0.3-0.406-0.673-0.824-1.022c0-0.001-0.001-0.001-0.002-0.002c0.895,0.603,2.011,1.052,3.347,1.345    c-0.084,0.188-0.152,0.383-0.204,0.584C10.891,20.015,10.667,20.07,10.431,20.07L10.431,20.07z"/></g><g><path class="st2" d="M6.273,18.36c-0.062,0-0.115,0.023-0.143,0.069c-0.048,0.082,0.008,0.205,0.125,0.274    c0.053,0.031,0.109,0.046,0.159,0.046c0.062,0,0.115-0.023,0.143-0.068c0.049-0.082-0.008-0.205-0.126-0.274    C6.38,18.376,6.323,18.36,6.273,18.36L6.273,18.36z"/></g><g><path class="st2" d="M6.913,18.934c-0.031,0-0.06,0.008-0.082,0.026c-0.076,0.058-0.07,0.193,0.014,0.302    c0.058,0.075,0.137,0.117,0.205,0.117c0.03,0,0.059-0.008,0.082-0.026c0.076-0.058,0.069-0.193-0.014-0.301    C7.061,18.977,6.98,18.934,6.913,18.934L6.913,18.934z"/></g><g><path class="st2" d="M7.461,19.688c-0.03,0-0.059,0.009-0.082,0.026c-0.075,0.059-0.069,0.193,0.014,0.302    c0.058,0.075,0.137,0.117,0.205,0.117c0.031,0,0.06-0.008,0.083-0.026c0.075-0.058,0.069-0.192-0.014-0.301    C7.608,19.731,7.529,19.688,7.461,19.688L7.461,19.688z"/></g><g><path class="st2" d="M8.193,20.549c-0.047,0-0.089,0.016-0.115,0.048c-0.062,0.073-0.026,0.204,0.079,0.291    c0.059,0.049,0.127,0.074,0.187,0.074c0.047,0,0.088-0.016,0.114-0.048C8.52,20.84,8.484,20.71,8.38,20.623    C8.321,20.574,8.253,20.549,8.193,20.549L8.193,20.549z"/></g><g><path class="st2" d="M9.261,21.11c-0.12,0-0.221,0.056-0.242,0.144c-0.029,0.112,0.079,0.236,0.24,0.277    c0.034,0.009,0.068,0.013,0.102,0.013c0.12,0,0.22-0.055,0.241-0.143c0.029-0.113-0.079-0.236-0.24-0.278    C9.327,21.114,9.293,21.11,9.261,21.11L9.261,21.11z"/></g><g><path class="st2" d="M10.446,21.286c-0.159,0-0.287,0.086-0.292,0.197c-0.004,0.116,0.127,0.216,0.294,0.222    c0.005,0,0.011,0,0.016,0c0.159,0,0.288-0.086,0.292-0.198c0.005-0.115-0.126-0.215-0.292-0.221    C10.458,21.286,10.452,21.286,10.446,21.286L10.446,21.286z"/></g><g><path class="st2" d="M11.615,21.167c-0.028,0-0.058,0.003-0.087,0.009c-0.162,0.034-0.275,0.154-0.252,0.268    c0.02,0.093,0.125,0.152,0.252,0.152c0.028,0,0.058-0.003,0.087-0.009c0.162-0.034,0.275-0.153,0.252-0.267    C11.848,21.227,11.742,21.167,11.615,21.167L11.615,21.167z"/></g></g></svg>