<?xml version="1.0" ?><svg id="Layer_1" style="enable-background:new 0 0 512 512;" version="1.1" viewBox="0 0 512 512" xml:space="preserve" xmlns="http://www.w3.org/2000/svg" xmlns:xlink="http://www.w3.org/1999/xlink"><g id="XMLID_501_"><path d="M406.8,61.4H294.3V44.3C294.3,23.2,277.1,6,256,6c-21.1,0-38.3,17.2-38.3,38.3v17.1H105.2   c-11.7,0-21.3,9.5-21.3,21.3v402c0,11.7,9.5,21.3,21.3,21.3h301.7c11.7,0,21.3-9.5,21.3-21.3v-402C428.1,71,418.6,61.4,406.8,61.4z    M227.5,44.3c0-15.7,12.8-28.5,28.5-28.5c15.7,0,28.5,12.8,28.5,28.5v40.2c0,5.4-4.4,9.7-9.7,9.7h-37.6c-5.4,0-9.7-4.4-9.7-9.7   V44.3z M220,93.7c3.3,6.1,9.8,10.3,17.2,10.3h37.6c7.4,0,13.9-4.2,17.2-10.3h103.8v380H116.2v-380H220z M418.3,484.7   c0,6.3-5.1,11.5-11.5,11.5H105.2c-6.3,0-11.5-5.1-11.5-11.5v-402c0-6.3,5.1-11.5,11.5-11.5h112.5v12.7H106.4v399.6h299.2V83.9   H294.3V71.2h112.5c6.3,0,11.5,5.1,11.5,11.5V484.7z" id="XMLID_516_"/><path d="M304.8,145.6h-97.7c-2.7,0-4.9,2.2-4.9,4.9v0c0,2.7,2.2,4.9,4.9,4.9h97.7c2.7,0,4.9-2.2,4.9-4.9v0   C309.7,147.8,307.6,145.6,304.8,145.6z" id="XMLID_523_"/><path d="M237.1,356.8h-97.7c-2.7,0-4.9,2.2-4.9,4.9l0,0c0,2.7,2.2,4.9,4.9,4.9h97.7c2.7,0,4.9-2.2,4.9-4.9l0,0   C242,358.9,239.8,356.8,237.1,356.8z" id="XMLID_524_"/><path d="M237.1,384.2h-97.7c-2.7,0-4.9,2.2-4.9,4.9l0,0c0,2.7,2.2,4.9,4.9,4.9h97.7c2.7,0,4.9-2.2,4.9-4.9l0,0   C242,386.4,239.8,384.2,237.1,384.2z" id="XMLID_525_"/><path d="M274.9,366.6h97.7c2.7,0,4.9-2.2,4.9-4.9l0,0c0-2.7-2.2-4.9-4.9-4.9h-97.7c-2.7,0-4.9,2.2-4.9,4.9l0,0   C270,364.4,272.2,366.6,274.9,366.6z" id="XMLID_526_"/><path d="M274.9,394h97.7c2.7,0,4.9-2.2,4.9-4.9l0,0c0-2.7-2.2-4.9-4.9-4.9h-97.7c-2.7,0-4.9,2.2-4.9,4.9l0,0   C270,391.8,272.2,394,274.9,394z" id="XMLID_527_"/><path d="M315.4,184.8H196.6c-2.7,0-4.9,2.2-4.9,4.9v0c0,2.7,2.2,4.9,4.9,4.9h118.7c2.7,0,4.9-2.2,4.9-4.9v0   C320.3,187,318.1,184.8,315.4,184.8z" id="XMLID_528_"/><path d="M365,166.1H147c-2.7,0-4.9,2.2-4.9,4.9v0c0,2.7,2.2,4.9,4.9,4.9H365c2.7,0,4.9-2.2,4.9-4.9v0   C370,168.3,367.8,166.1,365,166.1z" id="XMLID_529_"/><path d="M256,69.2c12.3,0,22.3-10,22.3-22.3c0-12.3-10-22.3-22.3-22.3c-12.3,0-22.3,10-22.3,22.3   C233.7,59.2,243.7,69.2,256,69.2z M256,34.5c6.9,0,12.5,5.6,12.5,12.5c0,6.9-5.6,12.5-12.5,12.5c-6.9,0-12.5-5.6-12.5-12.5   C243.5,40.1,249.1,34.5,256,34.5z" id="XMLID_532_"/></g></svg>